<svg width="561" height="107" viewBox="0 0 561 107" fill="none" xmlns="http://www.w3.org/2000/svg">
<path d="M19.9687 104.685H-8.86582e-05L36.3572 1.41196H59.4523L95.86 104.685H75.8912L48.3082 22.5909H47.5013L19.9687 104.685ZM20.6242 64.1925H75.0844V79.2195H20.6242V64.1925ZM208.53 1.41196V104.685H191.889L143.228 34.3402H142.371V104.685H123.662V1.41196H140.404L189.015 71.8069H189.922V1.41196H208.53ZM236.055 1.41196H257.183L282.447 47.098H283.455L308.719 1.41196H329.847L292.28 66.1591V104.685H273.622V66.1591L236.055 1.41196ZM443.752 53.0483C443.752 64.1757 441.668 73.7062 437.5 81.6399C433.365 89.54 427.717 95.5912 420.556 99.7934C413.43 103.996 405.345 106.097 396.301 106.097C387.258 106.097 379.157 103.996 371.996 99.7934C364.869 95.5576 359.221 89.4896 355.053 81.5895C350.918 73.6558 348.85 64.1421 348.85 53.0483C348.85 41.921 350.918 32.4072 355.053 24.5071C359.221 16.5734 364.869 10.5055 371.996 6.30329C379.157 2.10112 387.258 2.94447e-05 396.301 2.94447e-05C405.345 2.94447e-05 413.43 2.10112 420.556 6.30329C427.717 10.5055 433.365 16.5734 437.5 24.5071C441.668 32.4072 443.752 41.921 443.752 53.0483ZM424.943 53.0483C424.943 45.2155 423.716 38.6096 421.262 33.2309C418.842 27.8185 415.48 23.7339 411.177 20.9773C406.874 18.1871 401.916 16.7919 396.301 16.7919C390.687 16.7919 385.729 18.1871 381.426 20.9773C377.123 23.7339 373.744 27.8185 371.29 33.2309C368.87 38.6096 367.659 45.2155 367.659 53.0483C367.659 60.8812 368.87 67.5038 371.29 72.9162C373.744 78.295 377.123 82.3795 381.426 85.1698C385.729 87.9264 390.687 89.3047 396.301 89.3047C401.916 89.3047 406.874 87.9264 411.177 85.1698C415.48 82.3795 418.842 78.295 421.262 72.9162C423.716 67.5038 424.943 60.8812 424.943 53.0483ZM560.507 1.41196V104.685H543.866L495.205 34.3402H494.347V104.685H475.639V1.41196H492.381L540.992 71.8069H541.899V1.41196H560.507Z" fill="black"/>
</svg>
